<svg width="18" height="15" viewBox="0 0 18 15" xmlns="http://www.w3.org/2000/svg">
  <path d="M8.2 8.28c.4.3.7.56.88.74.2.2.4.47.6.86.18.4.28.8.28 1.25 0 1.04-.48 1.95-1.44 2.72-.97.77-2.3 1.15-4 1.15-1.45 0-2.57-.3-3.35-.9C.4 13.5 0 12.8 0 12c0-1.05.55-1.9 1.64-2.55.8-.5 1.9-.8 3.32-.9-.2-.36-.3-.7-.3-1 0-.2 0-.32.03-.4h-.17c-1.1 0-1.96-.34-2.62-1.02C1.3 5.5 1 4.77 1 3.9c0-1.1.45-2 1.36-2.77C3.3.38 4.54 0 6.02 0h5.23L8.9 1.3h-.5c.6.7.9 1.45.9 2.25 0 .5-.1.95-.32 1.35-.2.4-.4.7-.6.88-.2.18-.48.4-.84.67v.03c-.3.3-.43.5-.43.67 0 .18.14.38.4.58l.7.55zm-4.88-5.3c0 .67.18 1.33.55 1.98.4.7.95 1.06 1.6 1.06.44 0 .8-.15 1.1-.43.25-.27.38-.67.38-1.2 0-.66-.2-1.35-.58-2.06-.45-.73-.97-1.1-1.57-1.1-.5 0-.87.18-1.13.52-.23.28-.35.7-.35 1.2zm4.73 8.9c0-.37-.13-.7-.4-.98-.25-.3-.77-.7-1.56-1.2l-.14-.03c-.07-.02-.13-.02-.18-.02-.65 0-1.3.1-1.95.3-1 .38-1.5.92-1.5 1.65 0 .6.3 1.08.87 1.45.58.36 1.33.54 2.27.54.8 0 1.44-.16 1.9-.47.45-.32.68-.73.68-1.26zm6.4-8.83h3.05v1.33h-3.05v3.16h-1.32V4.37H10V3.05h3.13V0h1.32v3.05z" fill="#FFF" fill-rule="evenodd"/>
</svg>