<svg width="165" height="36" viewBox="0 0 165 36" xmlns="http://www.w3.org/2000/svg" xmlns:xlink="http://www.w3.org/1999/xlink">
  <defs>
    <path id="a" d="M14.04.76H.06v35.18H28V.76H14.05z"/>
  </defs>
  <g fill="none" fill-rule="evenodd">
    <g>
      <mask id="b" fill="#fff">
        <use xlink:href="#a"/>
      </mask>
      <path d="M7.2 34.8c-1.6-1.7-3.2-4.7-1.14-8.95 0 0 1.04 10.43 9.28 10.14C23.6 35.7 28 29.4 28 22.1c0 0 .05-2.16-1.03-4.76 0 0 .16 4.44-4.33 6.72 0 0 8.12-11.22-2.06-18.7 0 0 1.62 4.28-1.3 5.7 0 0-.76-9.7-11.5-10.3 0 0 6.9 6.18 1.42 15.17 0 0 .48-6.5-5.75-6.23 0 0 3.07 2.8-.27 6.4C-.94 20.54-.15 26.05.6 27.8c1.33 3.02 3.67 5.48 6.6 7" fill="#fff" mask="url(#b)"/>
    </g>
    <path d="M42.07 13.38c0-.25-.1-1.34-.44-1.34-.25 0-.35 1.24-.35 1.44-.25 3.86-.4 6.34-.64 9.5 0 .35.24.4 1 .4.63 0 1.13.1 1.08-.35-.25-3.66-.4-5.74-.65-9.65m4.5 22.08c-1.43 0-2.37.1-2.47-.6-.4-2.77-.6-4.65-1-7.37-.04-.5-.63-.4-1.42-.4-.94 0-1.44-.1-1.5.4-.28 2.76-.48 4.6-.73 7.46-.05.55-1.14.5-2.72.5-.75 0-2.48 0-2.43-.45 1.83-12.9 3.12-21.57 4.75-33.5.1-.7 1.5-.74 2.58-.74 1.23 0 2.52.05 2.67.9 1.88 12.66 3.02 20.38 5 33.3.1.55-1.4.5-2.72.5M62.74 5.66H60.6c-.54 0-1.18 0-1.43.1-.44.34-.34 1.2-.34 1.83v27.36c0 .45-.55.5-2.87.5-2.08 0-2.53 0-2.53-.5V7.6c0-.65.1-1.5-.34-1.84-.26-.1-.9-.1-1.45-.1h-1.83c-.74 0-.9-.35-.9-2.43s.1-2.42.7-2.42H62.7c.58 0 .63.45.63 2.33 0 2.28-.05 2.53-.6 2.53M77.83 35.4c-2.62 0-2.72-.04-2.72-.98V21.3c0-.6 0-1.1-.43-1.14-.6-.15-2.77-.05-2.97 0-.4.15-.4.6-.4 1.24v13.22c0 .8-.15.8-2.72.8-2.43 0-2.53 0-2.53-.7V1.75c0-.74.15-.9 2.53-.9 2.62 0 2.77.16 2.77.95v11.58c0 .84 0 1.4.64 1.6.44.04 2.17.13 2.72 0 .4-.16.4-.7.4-1.45V1.6c0-.84.3-.74 2.66-.74 2.53 0 2.68 0 2.68.8V34.4c0 .94 0 1-2.63 1M95.8 35.46h-9.5c-.7 0-1.4 0-1.64-.3-.3-.35-.24-1.1-.24-1.73V1.6c0-.7.24-.8 2.47-.8 2.52 0 2.8.06 2.8.85v27.03c0 .64-.04 1.48.3 1.73.26.16.85.2 1.35.2h4.4c.64 0 .7.25.7 2.33 0 2.38-.06 2.53-.65 2.53M101.7 35.4c-2.43 0-2.53 0-2.53-.68V1.65c0-.74.2-.8 2.52-.8 2.6 0 2.76.06 2.76.85v32.92c0 .74-.05.8-2.77.8M121.14 35.46c-1.28 0-1.83-.1-2.17-1.34-1.64-5.74-2.23-8.36-3.96-14.6-.3-1.1-.7-2.92-1.03-2.92-.35 0-.35 1.04-.35 1.68v16.3c0 .78-.15.88-2.72.88-2.48 0-2.48-.1-2.48-.84V1.5c0-.7.1-.7 2.28-.7 2.13 0 2.42.2 2.77 1.6 1.1 4.05 2.53 9.35 4 14.6.16.5.3 1.28.6 1.28.35 0 .35-.94.35-1.48V1.7c0-.8.15-.9 2.63-.9 2.52 0 2.57.06 2.57.85v32.37c0 1.3.05 1.44-2.48 1.44M140.65 35.46c-2.23 0-2.68.1-2.87-.7-1.34-5.34-2.18-8.6-3.47-13.95-.1-.44-.44-.54-1.03.8-.3.7-.4 1.33-.4 2.08v10.9c0 .78-1.23.88-2.67.88-1.3 0-2.62-.1-2.62-.8V1.57c0-.65 1.48-.7 2.57-.7 1.14 0 2.72 0 2.72.74v11.98c0 .35-.04 1.1.25 1 .15-.06.25-.6.35-.95 1.38-4.75 2.03-7.33 3.4-12.13.16-.54.46-.5 2.78-.5 2.43 0 2.88.2 2.78.5-1.7 5.3-2.33 7.38-4.06 12.43-.2.54-.35 1.13-.35 1.63 0 .44.1.84.35 1.78 1.93 6.73 2.87 10.2 4.9 17.52.05.3 0 .6-2.63.6M158.8 31.35c-1.67 3.02-2.8 4.1-6.37 4.1-4.06 0-7.18-2.42-7.18-6.92v-2.78c0-.44.44-.5 2.42-.5s2.92 0 2.92.4v2.1c0 1.82.34 2.9 1.83 2.9 1.33 0 1.68-.98 1.78-1.83.06-.84.1-1.58.1-2.27 0-4.3-9.35-10.3-9.35-17.72 0-1.4.6-3.67 1.24-4.8.63-1.14 2.4-3.22 5.78-3.22 4.2 0 7.03 3.13 7.03 6.74v2.42c0 .35-.7.3-2.37.3-1.88 0-2.87 0-2.87-.34V7.64c0-1.4-.94-2.23-1.78-2.23-.9 0-1.58.8-1.68 1.6-.1.74-.15 1.33-.15 1.98 0 5.84 9.45 9.84 9.45 17.9 0 1.5-.2 3.38-.8 4.47M159.56 34.7l.3-.04c0 .12.04.22.1.3.05.07.13.13.23.18.1.05.22.07.36.07.12 0 .22 0 .3-.04.1-.04.17-.1.22-.15.04-.05.07-.12.07-.2 0-.07-.03-.13-.07-.2-.04-.04-.1-.1-.2-.13l-.43-.1c-.22-.06-.37-.1-.46-.16-.12-.05-.2-.12-.26-.2-.06-.1-.1-.2-.1-.3 0-.13.05-.24.12-.34.06-.1.16-.2.3-.24.12-.05.27-.08.43-.08.16 0 .32.03.45.1.14.04.24.13.3.23.08.12.12.24.13.38l-.3.02c-.02-.15-.07-.26-.17-.34-.08-.08-.22-.1-.4-.1-.2 0-.33.02-.4.1-.1.06-.14.14-.14.24 0 .1.03.16.1.2.05.07.2.12.46.18s.43.1.52.15c.14.07.24.15.3.24.08.1.1.2.1.34 0 .13-.03.25-.1.36-.07.1-.18.2-.3.26-.14.06-.3.1-.47.1-.2 0-.4-.04-.54-.1-.14-.07-.25-.16-.34-.28-.1-.13-.13-.27-.14-.43M161.87 35.45v-2.37h.47l.56 1.68c.05.16.1.27.1.35l.14-.37.57-1.65h.43v2.37h-.3v-1.98l-.7 1.98h-.27l-.7-2.02v2.02h-.3" fill="#FFF"/>
  </g>
</svg>